<?xml version="1.0" encoding="iso-8859-1"?>
<!-- Generator: Adobe Illustrator 19.0.0, SVG Export Plug-In . SVG Version: 6.00 Build 0)  -->
<svg version="1.1" id="Capa_1" xmlns="http://www.w3.org/2000/svg" xmlns:xlink="http://www.w3.org/1999/xlink" x="0px" y="0px"
	 viewBox="0 0 512 512" style="enable-background:new 0 0 512 512;" xml:space="preserve">
<path style="fill:#8C6E5C;" d="M71.558,373.335L58.943,476.497c-1.291,10.567,2.771,21.002,10.867,27.915
	c8.096,6.912,19.038,9.289,29.272,6.357c9.39-2.69,17.137-9.719,20.725-18.803l58.988-149.351L71.558,373.335z"/>
<g>
	<path style="fill:#AB8A78;" d="M71.558,373.335L58.943,476.497c-1.291,10.567,2.771,21.002,10.867,27.915
		c1.994,1.702,4.162,3.127,6.449,4.268l52.064-151.605L71.558,373.335z"/>
	<path style="fill:#AB8A78;" d="M440.444,373.335l12.615,103.161c1.291,10.567-2.771,21.002-10.867,27.915
		c-8.096,6.912-19.038,9.289-29.272,6.357c-9.39-2.69-17.137-9.719-20.725-18.803l-58.988-149.351L440.444,373.335z"/>
</g>
<path style="fill:#8C6E5C;" d="M440.444,373.335l12.615,103.161c1.291,10.567-2.771,21.002-10.867,27.915
	c-1.994,1.702-4.162,3.127-6.449,4.268l-52.064-151.605L440.444,373.335z"/>
<path style="fill:#1D6E67;" d="M427.999,33.66C408.845,12.269,381.393,0,352.679,0H159.323c-28.713,0-56.166,12.269-75.319,33.66
	c-18.957,21.172-28.136,49.443-25.257,77.69L58.215,330c-0.01,3.984,1.566,7.809,4.38,10.63s6.635,4.406,10.62,4.406h365.039
	c8.284,0,15-6.716,15-15V111.37C456.139,83.116,446.96,54.838,427.999,33.66z"/>
<path style="fill:#257987;" d="M256.001,0h-96.678c-28.713,0-56.166,12.269-75.319,33.66c-18.957,21.172-28.136,49.443-25.257,77.69
	L58.215,330c-0.01,3.984,1.566,7.809,4.38,10.63s6.635,4.406,10.62,4.406h182.786V0z"/>
<path style="fill:#20A18C;" d="M453.254,111.37c2.885-28.254-6.294-56.532-25.255-77.71C408.845,12.269,381.393,0,352.679,0H159.323
	c-28.713,0-56.166,12.269-75.319,33.66c-18.957,21.172-28.136,49.443-25.257,77.69l-0.245,100.672h394.752L453.254,111.37
	L453.254,111.37z"/>
<path style="fill:#3ABE8D;" d="M255.995,212.023V0h-96.672c-28.713,0-56.166,12.269-75.319,33.66
	c-18.957,21.172-28.136,49.443-25.257,77.69l-0.245,100.672L255.995,212.023L255.995,212.023z"/>
<path style="fill:#257987;" d="M443.814,60.414c-13.395-1.491-26.572,2.334-37.098,10.761s-17.14,20.446-18.624,33.844
	l-19.911,179.782h-224.36L123.91,105.02c-1.484-13.399-8.097-25.42-18.622-33.848C94.757,62.737,81.575,58.92,68.192,60.413
	c-27.659,3.063-47.67,28.059-44.606,55.719l24.885,224.693c2.836,25.604,24.401,44.913,50.162,44.913h314.735
	c25.761,0,47.326-19.309,50.162-44.913l24.885-224.693C491.479,88.474,471.471,63.479,443.814,60.414z"/>
<path style="fill:#20A18C;" d="M255.995,284.801H143.821L123.91,105.02c-1.484-13.399-8.097-25.42-18.622-33.848
	C94.757,62.737,81.575,58.92,68.192,60.413c-27.659,3.063-47.67,28.059-44.606,55.719l24.885,224.693
	c2.836,25.604,24.401,44.913,50.162,44.913h157.362V284.801z"/>
<g>
</g>
<g>
</g>
<g>
</g>
<g>
</g>
<g>
</g>
<g>
</g>
<g>
</g>
<g>
</g>
<g>
</g>
<g>
</g>
<g>
</g>
<g>
</g>
<g>
</g>
<g>
</g>
<g>
</g>
</svg>
