<svg height="512" viewBox="0 0 52 58" width="512" xmlns="http://www.w3.org/2000/svg"><g id="Page-1" fill="none" fill-rule="evenodd"><g id="014---Wallet" fill-rule="nonzero"><path id="Shape" d="m32.51 6.64-5.69-2.96-5.33-2.77-.88-.46c-1.9635129-1.0173312-4.379979-.25211694-5.4 1.71l-9.79 18.84 23.247 1.7z" fill="#2fa8cc"/><path id="Shape" d="m11.05 21 10.44-20.09 5.33 2.77-8.997 17.32z" fill="#35495e"/><path id="Shape" d="m37 58h8c2.209139 0 4-1.790861 4-4v-27.19h-9.86z" fill="#805333"/><path id="Shape" d="m12.59 21 8.36-6.02 11.56-8.34 2.63-1.89c1.7960482-1.28756876 4.2950736-.88075066 5.59.91l.58.81 3.51 4.87 6.43 8.93c1.2882947 1.7924673.881037 4.2897176-.91 5.58l-1.34.96-7 5.05z" fill="#e64c3c"/><path id="Shape" d="m21.14 21 20.17-14.53 3.51 4.87-13.41 9.66z" fill="#35495e"/><path id="Rectangle-path" d="m42 35h7v8h-7z" fill="#cb8252"/><rect id="Rectangle-path" fill="#a56a43" height="37" rx="4" width="42" y="21"/><g fill="#805333"><path id="Shape" d="m7 26h-2c-.55228475 0-1-.4477153-1-1s.44771525-1 1-1h2c.55228475 0 1 .4477153 1 1s-.44771525 1-1 1z"/><path id="Shape" d="m13 26h-2c-.5522847 0-1-.4477153-1-1s.4477153-1 1-1h2c.5522847 0 1 .4477153 1 1s-.4477153 1-1 1z"/><path id="Shape" d="m19 26h-2c-.5522847 0-1-.4477153-1-1s.4477153-1 1-1h2c.5522847 0 1 .4477153 1 1s-.4477153 1-1 1z"/><path id="Shape" d="m25 26h-2c-.5522847 0-1-.4477153-1-1s.4477153-1 1-1h2c.5522847 0 1 .4477153 1 1s-.4477153 1-1 1z"/><path id="Shape" d="m31 26h-2c-.5522847 0-1-.4477153-1-1s.4477153-1 1-1h2c.5522847 0 1 .4477153 1 1s-.4477153 1-1 1z"/><path id="Shape" d="m37 26h-2c-.5522847 0-1-.4477153-1-1s.4477153-1 1-1h2c.5522847 0 1 .4477153 1 1s-.4477153 1-1 1z"/><path id="Shape" d="m7 55h-2c-.55228475 0-1-.4477153-1-1s.44771525-1 1-1h2c.55228475 0 1 .4477153 1 1s-.44771525 1-1 1z"/><path id="Shape" d="m13 55h-2c-.5522847 0-1-.4477153-1-1s.4477153-1 1-1h2c.5522847 0 1 .4477153 1 1s-.4477153 1-1 1z"/><path id="Shape" d="m19 55h-2c-.5522847 0-1-.4477153-1-1s.4477153-1 1-1h2c.5522847 0 1 .4477153 1 1s-.4477153 1-1 1z"/><path id="Shape" d="m25 55h-2c-.5522847 0-1-.4477153-1-1s.4477153-1 1-1h2c.5522847 0 1 .4477153 1 1s-.4477153 1-1 1z"/><path id="Shape" d="m31 55h-2c-.5522847 0-1-.4477153-1-1s.4477153-1 1-1h2c.5522847 0 1 .4477153 1 1s-.4477153 1-1 1z"/><path id="Shape" d="m37 55h-2c-.5522847 0-1-.4477153-1-1s.4477153-1 1-1h2c.5522847 0 1 .4477153 1 1s-.4477153 1-1 1z"/></g><path id="Shape" d="m32 35h10v8h-10c-2.209139 0-4-1.790861-4-4s1.790861-4 4-4z" fill="#cf976a"/><circle id="Oval" cx="32" cy="39" fill="#d1d4d1" r="1"/></g></g></svg>